<?xml version="1.0"?><svg version="1.1" id="圖層_1" xmlns="http://www.w3.org/2000/svg" x="0" y="0" viewBox="0 0 100 100" xml:space="preserve"><path d="M75.76 62.519a24.436 24.436 0 0 0-3.985-5.948c-3.05-3.355-4.806-7.671-4.722-12.204.004-.209.006-.419.006-.63 0-13.165-7.579-20.965-17.016-20.965s-17.16 7.8-17.16 20.965c0 .279.003.557.01.833.111 4.492-1.673 8.765-4.677 12.107-3.818 4.247-6.102 9.631-6.102 15.492 0 4.578 1.398 8.638 3.826 12.023C30.789 90.95 39.765 95 50.043 95c15.425 0 27.929-9.112 27.929-22.832 0-3.426-.801-6.68-2.212-9.649z" fill="#8cc63f"/><path d="M46.688 11.097C43.767 7.109 39.431 5.937 34.578 5c-1.342 1.42-1.7 3.036-.441 4.939 4.26.887 8.165 1.419 11.049 4.678a22.981 22.981 0 0 1 3.755 5.877 24.8 24.8 0 0 1 1.18 3.248c.33 1.154.196 2.574 1.526 2.872.315-2.391-.523-5.427-1.179-7.7-.809-2.793-2.059-5.468-3.78-7.817z" fill="#603813"/><path d="M52.467 12.511c4.007-4.739 10.66-7.079 16.751-5.891.213 1.259-.179 2.547-.731 3.699-2.25 4.687-7.428 7.804-12.623 7.596-1.069-.043-2.17-.209-3.189.117-1.019.327-1.92 1.368-1.636 2.399-1.138-2.667-.38-5.781 1.428-7.92z" fill="#009245"/><metadata xmlns:d="https://loading.io/stock/">
<d:name>pear</d:name>
<d:tags>pear,guava,fruit</d:tags>
<d:license>by</d:license>
<d:slug>6g336s</d:slug>
</metadata></svg>